<svg xmlns="http://www.w3.org/2000/svg" id="Camada_2" data-name="Camada 2" viewBox="0 0 343.11 216.45"><defs><style>      .cls-1 {        fill: #fff;      }      .cls-2, .cls-3 {        fill: #02a8ec;      }      .cls-4 {        stroke: #000;        stroke-miterlimit: 10;      }      .cls-3, .cls-5 {        fill-rule: evenodd;      }    </style></defs><g id="Elementos"><g id="Logo"><g><path class="cls-2" d="m58.64,56.22c14.14-.68,28.65-.97,43.1-.85,13.85-.09,28.36.24,43.08.97,2.6.13,5.21.27,7.78.43-13.57-11.93-31.37-19.18-50.86-19.18s-37.13,7.19-50.68,19.02c2.47-.14,5.01-.28,7.58-.39Z"></path><path class="cls-2" d="m337.89,74.4h-170.41c-3.09-5.04-6.76-9.69-10.89-13.87-3.88-.26-7.91-.5-11.94-.69-14.66-.73-29.09-1.06-42.91-.97-14.42-.11-28.86.17-42.94.85-4.04.18-8.03.41-11.76.65-13.85,13.94-22.4,33.13-22.4,54.33,0,42.58,34.52,77.1,77.1,77.1,27.81,0,52.17-14.73,65.74-36.8h170.41c2.88,0,5.21-2.33,5.21-5.21v-70.17c0-2.88-2.33-5.21-5.21-5.21Z"></path></g><g><path class="cls-1" d="m22.42,69.79c-.28,0-.61-.01-1-.04-.39-.02-.82-.05-1.27-.09-.45-.04-.91-.08-1.38-.13-.47-.05-.91-.09-1.32-.14.25.33.53.67.81,1.04s.57.74.84,1.1.52.71.75,1.03c.23.32.41.6.56.83l-.76,1.36c-.48-.18-1-.4-1.58-.65-.58-.25-1.17-.52-1.79-.81-.61-.29-1.23-.58-1.84-.88-.61-.3-1.19-.58-1.73-.84l.81-1.46c.66.34,1.37.71,2.15,1.1.78.39,1.57.77,2.38,1.14-.2-.26-.43-.56-.68-.88s-.5-.64-.75-.96c-.25-.32-.49-.63-.71-.92-.23-.29-.42-.54-.58-.75l.58-1.04c.26.03.58.06.94.1s.75.08,1.16.12c.4.04.81.08,1.21.12s.77.08,1.11.11c-.74-.49-1.48-.97-2.22-1.42-.74-.46-1.43-.87-2.07-1.25l.81-1.46c.51.32,1.05.66,1.63,1.03s1.15.73,1.72,1.1c.57.37,1.11.74,1.63,1.09.52.36.98.69,1.38,1l-.79,1.43Z"></path><path class="cls-1" d="m9.84,78.06c.28.03.56.05.86.08.29.02.59.05.88.07l1.2-2.72c-.21-.2-.43-.4-.65-.6-.22-.2-.43-.39-.64-.57l.72-1.63c.64.59,1.22,1.14,1.75,1.66.53.51,1.03,1.01,1.5,1.48.46.47.9.93,1.31,1.37.41.44.8.88,1.18,1.33l-.65,1.49c-.58.02-1.18.03-1.78.03-.6,0-1.24-.01-1.9-.03s-1.36-.05-2.1-.1c-.74-.04-1.54-.1-2.41-.17l.74-1.68Zm6.22.48c-.09-.08-.2-.19-.35-.34-.15-.14-.31-.31-.5-.49s-.4-.39-.63-.62c-.23-.23-.47-.46-.72-.7l-.88,1.99c.35.03.68.05,1,.07.32.02.61.04.88.05.27,0,.5.02.71.03s.36.01.48.02Z"></path><path class="cls-1" d="m6.99,85.83c.98-.18,1.97-.41,2.95-.67.99-.27,1.94-.58,2.86-.95l-4.72-1.61.54-1.6,7.2,2.45-.45,1.32c-.31.15-.67.31-1.1.47-.43.16-.88.33-1.35.48s-.96.31-1.47.46c-.5.15-.98.28-1.44.4l4.25,1.45-.55,1.61-7.2-2.45.46-1.36Z"></path><path class="cls-1" d="m5.06,92.11c.13-.52.31-.95.55-1.29.24-.34.52-.6.84-.78s.67-.29,1.06-.31c.39-.03.8.01,1.23.12l4.59,1.14-.42,1.66-4.45-1.11c-.3-.07-.56-.1-.79-.09s-.42.06-.58.15c-.16.08-.29.2-.39.36-.1.15-.17.33-.22.53-.1.41-.06.76.13,1.08s.58.55,1.17.69l4.45,1.11-.41,1.66-4.59-1.14c-.43-.11-.82-.27-1.15-.48s-.6-.47-.79-.79c-.2-.31-.32-.68-.37-1.1-.05-.42,0-.89.13-1.42Z"></path><path class="cls-1" d="m10.62,103.99l-1.44-.24.38-2.26-6.06-1.03.29-1.69,6.06,1.03.38-2.26,1.44.24-1.05,6.21Z"></path><path class="cls-1" d="m2.96,104.13l7.57.75-.5,5.11-1.43-.14.34-3.41-1.49-.15-.3,3.03-1.4-.14.3-3.03-1.83-.18-.36,3.66-1.43-.14.53-5.37Z"></path><path class="cls-1" d="m2.22,116.22c.88-.47,1.75-.99,2.61-1.54s1.67-1.14,2.44-1.77l-4.98-.1.03-1.69,7.61.15-.03,1.39c-.25.24-.55.5-.9.78s-.74.58-1.14.87-.83.59-1.26.88c-.43.29-.85.57-1.25.82l4.49.09-.03,1.7-7.61-.15.03-1.44Z"></path><path class="cls-1" d="m2.35,123.64c-.06-.03-.12-.05-.17-.07-.05-.02-.1-.03-.14-.05-.1.24-.23.41-.39.51-.16.1-.32.15-.49.16-.35.02-.63-.1-.83-.37-.2-.27-.31-.63-.34-1.08-.01-.16,0-.32,0-.48.02-.16.04-.33.08-.49l.96.14c-.01.05-.03.15-.05.28-.03.14-.03.27-.03.4,0,.1.03.19.08.26.04.08.12.11.22.11.09,0,.17-.04.23-.12.07-.08.12-.21.14-.38l.02-.13c.09.02.19.06.31.1.12.04.23.08.33.12.06-1.03.41-1.83,1.05-2.39s1.53-.88,2.68-.95c.63-.04,1.19.03,1.7.2.5.17.94.41,1.3.74s.64.72.85,1.18c.2.47.32.97.36,1.53.02.32.01.61-.02.88-.03.27-.07.5-.12.7-.05.2-.1.37-.16.51-.06.13-.1.23-.14.29l-1.41-.41c.11-.24.2-.52.27-.83.07-.32.09-.67.07-1.07-.02-.26-.08-.52-.18-.76-.1-.25-.26-.46-.46-.64s-.46-.32-.78-.42c-.31-.1-.69-.14-1.13-.11-.35.02-.68.08-.97.17-.3.09-.55.23-.76.42s-.37.42-.48.71-.15.62-.13,1.02c.01.25.04.47.08.67s.09.37.14.52c.05.15.1.28.16.4.06.11.11.22.16.31l-1.34.55c-.14-.2-.28-.49-.41-.85-.13-.36-.22-.78-.28-1.26Z"></path><path class="cls-1" d="m3.53,132.62c.25-.12.51-.25.77-.39.26-.13.52-.27.78-.41l-.42-2.94c-.29-.06-.58-.11-.87-.17-.29-.06-.57-.11-.84-.15l-.25-1.76c.85.17,1.64.33,2.37.49.72.16,1.41.31,2.05.47.64.16,1.25.31,1.84.47.58.16,1.15.33,1.71.51l.23,1.61c-.49.32-.99.64-1.5.96-.51.32-1.06.64-1.63.97-.57.33-1.19.67-1.84,1.03s-1.36.73-2.13,1.13l-.26-1.82Zm5.54-2.87c-.12-.02-.27-.06-.47-.1-.2-.05-.43-.1-.69-.16-.26-.06-.55-.12-.86-.2s-.64-.14-.98-.22l.31,2.15c.31-.16.61-.32.89-.47.28-.15.54-.29.77-.42.23-.13.44-.25.62-.35.18-.1.32-.18.42-.24Zm3.95,1.55c-.11-.03-.24-.07-.38-.13-.14-.06-.28-.13-.4-.23s-.24-.2-.33-.33c-.09-.13-.15-.27-.17-.44-.02-.13-.02-.25,0-.37.02-.12.05-.24.08-.35.03-.12.06-.23.08-.35.02-.11.03-.23.01-.34-.02-.15-.08-.26-.19-.34-.11-.08-.23-.14-.36-.18l.41-.87c.11.03.24.07.38.13.14.06.28.13.4.22.13.09.24.2.33.33.09.13.15.27.17.44.02.13.02.26,0,.37-.02.12-.05.24-.08.35-.03.11-.06.23-.08.34s-.03.23-.01.35c.02.15.08.26.19.34.11.08.23.14.36.18l-.41.87Z"></path><path class="cls-1" d="m9.33,141.69c-.63.15-1.21.18-1.74.1-.53-.08-.99-.25-1.39-.5-.4-.25-.73-.59-1-1-.27-.42-.46-.88-.58-1.4-.12-.51-.14-1-.08-1.49.06-.49.21-.94.46-1.34.25-.41.59-.77,1.03-1.07.44-.3.97-.53,1.61-.67s1.22-.17,1.74-.08c.53.09.99.27,1.4.53.41.26.74.6,1.01,1.01.27.41.46.86.57,1.35.12.51.14,1,.08,1.49-.06.49-.22.93-.47,1.35s-.6.77-1.03,1.07c-.44.3-.97.53-1.61.67Zm-1.3-5.66c-.36.08-.68.2-.95.36s-.49.34-.67.56c-.17.22-.29.46-.35.73-.06.27-.05.56.02.87.07.31.19.57.36.79.17.22.38.39.63.51.25.12.53.19.84.21.31.02.65,0,1.02-.09.36-.08.68-.2.96-.36.28-.16.5-.34.67-.56.17-.22.29-.46.34-.73s.05-.56-.02-.87c-.07-.31-.2-.58-.37-.79-.17-.21-.38-.38-.63-.5-.25-.12-.53-.19-.85-.21-.32-.02-.65,0-1.01.09Z"></path><path class="cls-1" d="m6.95,146.92l7.19-2.49,1.68,4.85-1.36.47-1.12-3.24-1.41.49,1,2.87-1.33.46-1-2.87-1.73.6,1.21,3.47-1.36.47-1.76-5.09Z"></path><path class="cls-1" d="m12.52,160.68c.2-.19.41-.39.62-.59.21-.21.42-.41.63-.62l-1.26-2.69c-.29.03-.58.06-.88.09s-.58.07-.85.1l-.75-1.61c.86-.09,1.67-.17,2.4-.23.74-.06,1.44-.11,2.1-.15.66-.04,1.29-.07,1.89-.08.6-.02,1.2-.02,1.78-.01l.69,1.47c-.37.45-.76.9-1.15,1.36s-.82.92-1.27,1.41c-.45.48-.94.99-1.46,1.52-.52.53-1.09,1.1-1.71,1.7l-.78-1.66Zm4.46-4.36c-.12.01-.28.03-.48.04-.2.01-.44.03-.7.05-.27.02-.56.04-.88.06-.32.02-.66.05-1,.08l.92,1.97c.25-.25.49-.48.71-.71.23-.23.43-.44.61-.63s.35-.37.49-.51c.14-.15.25-.26.33-.35Z"></path><path class="cls-1" d="m15.4,166.36c-.61-1.08-.77-2.07-.49-2.97.28-.9.97-1.67,2.07-2.29.55-.31,1.09-.5,1.61-.57.53-.07,1.02-.04,1.49.09.46.13.89.36,1.28.69.39.33.72.73.99,1.22.16.28.28.55.37.8.09.25.15.48.2.68.04.2.07.38.08.53,0,.15,0,.25,0,.32l-1.45.25c0-.26-.05-.55-.12-.87-.08-.31-.21-.64-.41-.99-.13-.23-.29-.43-.5-.61-.2-.18-.43-.3-.7-.38s-.56-.08-.88-.04c-.33.05-.68.18-1.06.4-.31.17-.57.37-.8.58s-.39.45-.5.71c-.11.26-.15.54-.12.84.03.3.14.63.33.97.12.22.25.4.37.56.12.16.24.29.35.41.11.11.22.21.32.29.1.08.2.15.28.21l-.96,1.09c-.25-.14-.53-.37-.85-.69-.32-.33-.62-.74-.9-1.24Z"></path><path class="cls-1" d="m17.56,169.7l6.33-4.22,2.85,4.28-1.2.8-1.9-2.85-1.24.83,1.69,2.53-1.17.78-1.69-2.53-1.53,1.02,2.04,3.06-1.2.8-2.99-4.49Z"></path><path class="cls-1" d="m23.8,176.32c.15.19.28.34.41.44.13.1.25.17.36.2s.22.03.32,0c.1-.03.19-.08.29-.15.2-.15.29-.37.28-.66-.01-.29-.12-.71-.31-1.28-.08-.25-.16-.51-.22-.78s-.08-.53-.07-.79.08-.52.2-.76c.12-.25.32-.48.59-.69.28-.21.57-.36.87-.42s.61-.07.91,0,.6.21.9.42.57.48.84.83c.31.41.54.79.68,1.15.14.36.23.68.28.95l-1.37.43c-.04-.24-.11-.48-.2-.74s-.25-.53-.47-.82c-.25-.33-.47-.52-.67-.6-.2-.07-.39-.04-.58.1-.11.08-.18.18-.22.29-.04.11-.05.24-.03.38.01.14.04.29.09.46.05.16.1.34.17.53.12.4.22.76.29,1.08.07.32.08.61.05.88-.03.27-.12.52-.27.75-.15.23-.36.46-.65.68-.56.43-1.15.57-1.76.42-.61-.16-1.23-.63-1.84-1.42-.2-.27-.37-.52-.51-.76s-.24-.46-.32-.66c-.08-.2-.14-.38-.18-.54-.04-.16-.07-.3-.08-.41l1.37-.45c.04.26.12.55.25.87s.34.68.63,1.06Z"></path><path class="cls-1" d="m27.99,181.42c.16.18.31.32.44.41.13.09.26.15.37.17s.22.02.32-.02c.1-.04.19-.09.27-.17.19-.16.26-.39.23-.67-.03-.28-.16-.7-.4-1.26-.1-.24-.19-.5-.27-.76-.08-.26-.12-.52-.12-.78s.05-.52.15-.78c.1-.26.28-.5.55-.73.26-.23.54-.39.84-.48.3-.09.6-.11.91-.06.31.05.62.17.92.36.31.19.6.44.89.77.34.38.59.75.75,1.1s.28.66.34.93l-1.34.52c-.06-.23-.14-.47-.25-.72-.11-.25-.29-.51-.53-.79-.27-.31-.51-.49-.71-.55-.2-.06-.39-.01-.57.14-.1.09-.17.19-.2.31-.03.11-.03.24,0,.38s.06.29.12.45.12.33.2.52c.15.39.27.75.36,1.06.09.31.12.61.11.88-.01.27-.09.53-.22.77s-.33.48-.61.72c-.53.47-1.11.65-1.73.53-.62-.12-1.27-.55-1.93-1.3-.22-.25-.41-.49-.56-.72-.15-.23-.27-.44-.36-.64s-.17-.37-.22-.53c-.05-.16-.09-.29-.11-.41l1.34-.54c.06.25.16.54.3.85s.38.65.7,1.02Z"></path><path class="cls-1" d="m37.98,188.07c-.45.47-.92.81-1.4,1.03-.48.22-.96.33-1.43.34s-.94-.09-1.39-.3c-.45-.2-.87-.49-1.25-.86-.37-.36-.67-.76-.88-1.21s-.33-.9-.34-1.38.08-.96.28-1.46c.2-.49.53-.97.98-1.44.45-.47.92-.81,1.42-1.02s.98-.32,1.46-.32c.48,0,.95.1,1.39.29s.85.47,1.21.82c.37.36.67.76.88,1.21.21.44.33.9.34,1.38s-.08.97-.28,1.46c-.2.49-.53.97-.98,1.44Zm-4.17-4.04c-.26.27-.46.54-.6.82-.14.28-.23.55-.25.83-.03.28,0,.54.11.8.1.26.26.5.49.72.23.22.47.37.73.47.26.09.53.12.8.08.27-.03.55-.13.82-.28.28-.15.54-.36.8-.63.26-.27.46-.54.61-.83s.23-.56.26-.83c.03-.28-.01-.54-.11-.8-.1-.26-.26-.5-.49-.72-.23-.22-.48-.38-.74-.47-.26-.09-.53-.11-.8-.08-.27.04-.55.13-.83.29s-.54.36-.8.63Zm6.41-1.87l-2.36-.16-.07-1,2.35-.2.08,1.36Z"></path><path class="cls-1" d="m43.29,187.43c.88.72,1.43,1.44,1.64,2.14s.05,1.38-.5,2.04c-.34.41-.71.67-1.11.77-.4.1-.84.08-1.32-.07,0,.25-.02.52-.04.81-.03.3-.06.6-.1.91-.04.31-.09.63-.16.95-.06.32-.13.63-.21.93l-1.48-1.21c.05-.28.1-.57.15-.86.05-.29.1-.57.13-.86.04-.28.07-.55.09-.81s.03-.5.03-.73l-.65-.54-1.76,2.14-1.32-1.09,4.76-5.79c.33.18.67.39.99.62.33.23.61.45.85.65Zm-.85,1.19c-.1-.08-.18-.15-.27-.2s-.16-.11-.23-.16l-1.31,1.59.37.31c.5.41.91.64,1.22.69.32.05.6-.07.85-.37.24-.29.3-.58.18-.88-.12-.3-.39-.62-.81-.97Z"></path><path class="cls-1" d="m47.11,190.56l1.38,1.01-4.49,6.14-1.38-1.01,4.49-6.14Z"></path><path class="cls-1" d="m53.8,199.61c-.35.55-.74.98-1.17,1.29-.43.31-.88.52-1.34.62s-.94.1-1.42-.01-.95-.3-1.4-.59c-.44-.28-.81-.61-1.1-1-.3-.39-.5-.82-.61-1.28-.11-.46-.12-.96-.02-1.48s.32-1.06.67-1.61c.35-.55.74-.98,1.18-1.28.44-.31.89-.51,1.37-.61.47-.1.95-.09,1.42.01.48.1.93.29,1.35.56.44.28.81.61,1.1,1,.3.39.5.82.61,1.29.11.47.11.96.02,1.49-.1.52-.32,1.06-.67,1.61Zm-4.9-3.12c-.2.32-.34.62-.43.92s-.11.59-.08.87c.03.28.12.53.26.76.15.23.36.44.63.61.26.17.54.27.81.31.28.04.54.01.81-.08s.51-.24.75-.44c.24-.21.46-.46.66-.78s.34-.62.43-.93c.09-.3.11-.59.09-.87s-.12-.53-.27-.76c-.15-.23-.36-.44-.62-.6-.27-.17-.54-.28-.82-.31-.28-.03-.54,0-.8.09-.26.09-.51.24-.75.44-.24.21-.46.47-.66.77Z"></path><path class="cls-1" d="m55.8,203.5c.21.11.4.19.56.23.16.04.3.05.41.03.12-.02.21-.06.29-.13.08-.07.14-.15.2-.26.12-.22.11-.46-.02-.71s-.4-.6-.82-1.04c-.18-.19-.35-.4-.52-.62-.17-.22-.3-.45-.39-.69-.09-.25-.14-.5-.13-.78,0-.28.09-.57.25-.88.16-.31.37-.56.62-.75.25-.19.53-.31.83-.37s.64-.06.99,0c.35.07.72.2,1.1.4.45.24.82.5,1.1.77.28.27.49.52.65.75l-1.07.96c-.14-.2-.3-.39-.49-.59s-.45-.38-.77-.55c-.36-.19-.65-.28-.86-.26-.21.02-.37.13-.48.33-.07.12-.09.24-.08.36.01.12.06.24.13.36.07.13.16.25.27.38.11.13.23.27.37.42.28.31.52.6.71.87.19.26.33.52.41.78.08.26.11.53.07.8s-.14.57-.31.89c-.33.63-.81,1-1.43,1.11-.62.11-1.38-.07-2.26-.54-.3-.16-.56-.32-.78-.48-.22-.16-.41-.32-.57-.47-.16-.15-.29-.29-.39-.42s-.18-.24-.25-.34l1.06-.98c.14.22.34.45.59.69.25.24.58.48,1.01.7Z"></path><path class="cls-1" d="m66.83,201.66c1.05.43,1.78.95,2.19,1.54s.44,1.32.1,2.16c-.35.85-.88,1.34-1.6,1.48s-1.61,0-2.67-.44l-.5-.2-.96,2.36-1.59-.65,2.84-6.94c.37.07.76.18,1.16.31s.74.25,1.03.38Zm-.45,1.39c-.12-.05-.23-.09-.34-.13-.11-.04-.21-.07-.3-.1l-.83,2.03.5.2c.55.22.99.32,1.33.28.34-.04.59-.26.76-.66.08-.2.11-.37.09-.53-.02-.16-.08-.3-.18-.43-.1-.13-.24-.25-.42-.36-.18-.11-.38-.21-.61-.3Z"></path><path class="cls-1" d="m72.84,212.01c0-.28,0-.56,0-.86,0-.3-.01-.59-.02-.88l-2.82-.93c-.18.23-.36.47-.53.7-.18.23-.35.46-.51.69l-1.69-.56c.53-.69,1.02-1.32,1.48-1.91.46-.58.9-1.12,1.33-1.63s.84-.99,1.24-1.44.8-.89,1.21-1.31l1.54.51c.07.58.14,1.17.2,1.77.06.6.11,1.23.15,1.89.04.66.08,1.36.11,2.1.03.74.05,1.55.07,2.41l-1.74-.57Zm-.12-6.23c-.07.09-.17.22-.3.38-.13.16-.28.34-.45.55-.17.21-.35.44-.56.68-.2.25-.41.51-.63.78l2.07.68c0-.35-.02-.68-.03-1-.01-.32-.02-.61-.04-.88s-.03-.5-.04-.71c-.01-.2-.02-.36-.03-.48Z"></path><path class="cls-1" d="m79.85,205.94c1.11.27,1.91.67,2.41,1.21.5.54.64,1.22.44,2.06-.13.52-.35.91-.66,1.18s-.72.44-1.21.51c.11.22.21.47.32.75.11.28.21.57.3.86.1.3.19.61.27.92.08.32.15.63.21.93l-1.86-.45c-.08-.27-.16-.55-.24-.84-.08-.28-.16-.56-.25-.83-.09-.27-.18-.53-.27-.77s-.19-.47-.29-.67l-.82-.2-.65,2.7-1.66-.4,1.76-7.29c.38.02.77.06,1.16.12.39.07.74.13,1.05.21Zm-.25,1.44c-.12-.03-.23-.05-.33-.07-.1-.02-.19-.03-.28-.04l-.49,2,.47.11c.63.15,1.09.18,1.4.09.31-.09.51-.33.6-.7.09-.36.01-.65-.22-.87-.24-.22-.62-.39-1.16-.52Z"></path><path class="cls-1" d="m88.77,215.49c-.04-.27-.09-.56-.15-.85-.05-.29-.11-.58-.16-.87l-2.94-.46c-.14.26-.27.52-.41.78-.14.26-.27.51-.39.76l-1.76-.27c.41-.77.79-1.47,1.15-2.12.36-.65.71-1.26,1.05-1.83.34-.57.67-1.11.99-1.62.32-.51.65-1,.98-1.49l1.6.25c.17.56.33,1.13.48,1.71.15.58.31,1.2.46,1.84.15.65.3,1.33.45,2.06.15.73.3,1.52.46,2.37l-1.81-.28Zm-1.13-6.13c-.06.1-.13.24-.24.42s-.22.38-.35.61c-.13.23-.28.49-.44.77s-.33.57-.49.88l2.15.33c-.06-.34-.13-.67-.19-.99-.06-.31-.12-.6-.18-.86-.06-.26-.11-.49-.15-.69-.04-.2-.08-.36-.11-.47Z"></path><path class="cls-1" d="m98.1,216.44c-1.24-.06-2.16-.45-2.77-1.17-.61-.72-.89-1.71-.83-2.97.03-.63.16-1.19.38-1.67.22-.48.51-.89.87-1.21.36-.32.78-.56,1.27-.71.48-.15,1-.21,1.56-.19.32.01.61.05.87.11.26.06.49.13.68.2.19.07.36.14.48.22.13.07.22.13.28.17l-.56,1.36c-.23-.14-.5-.25-.8-.36s-.66-.16-1.05-.18c-.26-.01-.52.02-.78.09s-.49.21-.69.39c-.2.18-.37.43-.5.73s-.21.67-.23,1.11c-.02.35,0,.68.07.99.06.31.17.58.33.8s.38.41.65.55c.27.14.6.22,1,.24.25.01.47,0,.67-.01s.38-.05.53-.08c.16-.03.29-.07.41-.12.12-.04.23-.09.32-.13l.41,1.39c-.25.13-.59.25-1.04.35-.44.09-.96.13-1.53.1Z"></path><path class="cls-1" d="m102.11,216.4l-.18-7.61,5.14-.12.03,1.44-3.42.08.04,1.49,3.04-.07.03,1.41-3.04.07.04,1.83,3.68-.08.03,1.44-5.39.13Z"></path><path class="cls-1" d="m113.98,214.24l.13,1.46-5.06.46-.68-7.58,1.71-.15.55,6.11,3.36-.3Z"></path><path class="cls-1" d="m118.39,215.21c-.53.09-.99.09-1.4,0-.41-.08-.76-.24-1.05-.46-.29-.22-.53-.51-.71-.85-.18-.34-.3-.74-.38-1.18l-.76-4.67,1.69-.28.74,4.53c.05.3.13.56.23.76.1.2.23.36.37.47.14.11.3.19.48.22.18.03.37.03.57,0,.41-.07.73-.25.94-.54s.27-.75.17-1.35l-.74-4.53,1.69-.28.76,4.67c.07.44.08.86.02,1.24-.06.39-.2.74-.41,1.04-.21.3-.5.56-.86.77-.37.21-.82.35-1.35.44Z"></path><path class="cls-1" d="m128,211.52l.34,1.43-4.94,1.18-1.77-7.4,1.66-.4,1.43,5.97,3.28-.78Z"></path><path class="cls-1" d="m134.93,210.9c-.16-.23-.33-.46-.51-.69-.18-.24-.36-.47-.53-.7l-2.83.91c0,.29-.01.59-.02.88,0,.29,0,.58,0,.86l-1.69.55c.02-.87.05-1.67.08-2.41.03-.74.07-1.44.11-2.1.04-.66.1-1.29.15-1.89s.13-1.19.21-1.77l1.55-.5c.4.42.8.86,1.2,1.31.4.45.81.93,1.24,1.44.42.51.86,1.06,1.32,1.64.46.58.95,1.22,1.47,1.91l-1.75.56Zm-3.77-4.97c0,.12,0,.28-.02.48-.01.2-.02.44-.04.7-.01.27-.03.56-.05.88-.02.32-.04.66-.05,1.01l2.07-.67c-.21-.28-.42-.54-.61-.8-.2-.25-.38-.48-.55-.69s-.32-.39-.45-.55-.23-.28-.31-.37Z"></path><path class="cls-1" d="m137.02,201.88c1.06-.44,1.94-.58,2.66-.44s1.24.61,1.57,1.4c.2.49.26.94.16,1.34s-.33.78-.68,1.13c.21.12.45.26.7.42.25.16.5.33.75.52.25.18.51.38.76.59.25.21.49.42.72.62l-1.77.73c-.22-.18-.45-.36-.68-.54-.23-.18-.46-.36-.69-.52-.23-.17-.46-.32-.67-.46-.22-.14-.43-.27-.63-.37l-.78.32,1.06,2.57-1.58.66-2.87-6.93c.32-.21.65-.4,1.01-.58s.68-.33.97-.45Zm.65,1.31c-.11.05-.22.09-.3.14-.09.04-.17.09-.25.13l.79,1.91.45-.18c.6-.25.99-.5,1.19-.75.19-.26.22-.56.07-.92-.14-.34-.38-.54-.7-.57-.32-.04-.73.05-1.24.26Z"></path><path class="cls-1" d="m144.95,206.82l-3.42-6.79,4.59-2.31.65,1.28-3.06,1.54.67,1.33,2.72-1.37.63,1.25-2.72,1.37.83,1.64,3.28-1.65.65,1.28-4.81,2.42Z"></path><path class="cls-1" d="m152.27,201.43c.21-.12.37-.24.48-.36s.2-.22.24-.33c.05-.11.06-.21.04-.31-.02-.1-.06-.2-.12-.3-.13-.21-.33-.33-.62-.36-.29-.02-.72.03-1.31.16-.26.05-.52.09-.8.12s-.54.02-.79-.03-.5-.14-.74-.29c-.23-.15-.44-.37-.62-.67-.18-.3-.28-.61-.31-.92s0-.61.12-.9c.11-.29.28-.57.52-.84.24-.27.55-.51.92-.73.44-.26.85-.44,1.23-.54s.7-.15.98-.16l.26,1.41c-.24.01-.49.05-.76.11s-.56.18-.87.37c-.35.21-.58.41-.67.6-.1.19-.08.38.03.58.07.12.16.2.26.25.11.05.23.08.37.08.14,0,.3,0,.46-.03.17-.03.35-.06.55-.1.41-.08.78-.13,1.11-.15.33-.03.62,0,.88.06s.5.18.71.35c.21.17.41.42.6.73.36.61.43,1.21.2,1.8-.23.59-.77,1.14-1.64,1.65-.29.17-.56.31-.81.41-.25.1-.49.18-.69.24s-.4.09-.56.11c-.16.02-.3.03-.42.03l-.28-1.42c.26,0,.56-.06.89-.14.34-.08.71-.25,1.13-.5Z"></path></g><g><path class="cls-1" d="m178.95,134.09v-37.95l7.52-1.21v12.72c.5-.17,1.15-.33,1.94-.48s1.56-.23,2.3-.23c2.15,0,3.94.29,5.37.88,1.43.59,2.57,1.42,3.43,2.5.86,1.08,1.46,2.35,1.82,3.83.35,1.48.53,3.13.53,4.94v14.99h-7.52v-14.08c0-2.42-.31-4.14-.93-5.15-.62-1.01-1.77-1.51-3.46-1.51-.67,0-1.3.06-1.89.18-.59.12-1.12.24-1.59.38v20.18h-7.52Z"></path><path class="cls-1" d="m216.04,130.1c0,1.51-.48,2.67-1.44,3.46-.96.79-2.04,1.19-3.25,1.19s-2.3-.4-3.25-1.19-1.44-1.94-1.44-3.46.48-2.67,1.44-3.46c.96-.79,2.04-1.19,3.25-1.19s2.3.4,3.25,1.19c.96.79,1.44,1.94,1.44,3.46Z"></path><path class="cls-1" d="m220.84,100.94l7.52-1.21v7.82h9.03v6.26h-9.03v9.33c0,1.58.28,2.84.83,3.79.56.94,1.67,1.41,3.36,1.41.81,0,1.64-.08,2.5-.23.86-.15,1.64-.36,2.35-.63l1.06,5.85c-.91.37-1.92.69-3.03.96-1.11.27-2.47.4-4.09.4-2.05,0-3.75-.28-5.1-.83-1.35-.55-2.42-1.33-3.23-2.32-.81-.99-1.37-2.2-1.69-3.61-.32-1.41-.48-2.98-.48-4.69v-22.3Z"></path><path class="cls-1" d="m241.22,121.02c0-2.35.36-4.42,1.08-6.18.72-1.77,1.67-3.24,2.85-4.42,1.18-1.18,2.53-2.07,4.06-2.67,1.53-.61,3.1-.91,4.72-.91,3.77,0,6.74,1.15,8.93,3.46,2.19,2.3,3.28,5.69,3.28,10.17,0,.44-.02.92-.05,1.44-.03.52-.07.98-.1,1.39h-17.06c.17,1.55.89,2.78,2.17,3.68,1.28.91,2.99,1.36,5.15,1.36,1.38,0,2.73-.13,4.06-.38,1.33-.25,2.41-.56,3.25-.93l1.01,6.11c-.4.2-.94.4-1.61.61-.67.2-1.42.38-2.25.53s-1.71.28-2.65.38c-.94.1-1.88.15-2.83.15-2.39,0-4.47-.35-6.23-1.06-1.77-.71-3.23-1.67-4.39-2.9-1.16-1.23-2.02-2.68-2.57-4.36-.56-1.68-.83-3.5-.83-5.45Zm17.66-2.88c-.03-.64-.14-1.26-.33-1.87s-.47-1.14-.86-1.62c-.39-.47-.88-.86-1.46-1.16-.59-.3-1.32-.45-2.2-.45s-1.56.14-2.17.43c-.61.29-1.11.67-1.51,1.14-.4.47-.71,1.02-.93,1.64-.22.62-.38,1.25-.48,1.89h9.94Z"></path><path class="cls-1" d="m270.69,120.82c0-1.92.31-3.72.93-5.42.62-1.7,1.52-3.18,2.7-4.44,1.18-1.26,2.61-2.26,4.29-3,1.68-.74,3.6-1.11,5.75-1.11,1.41,0,2.71.13,3.89.38,1.18.25,2.32.61,3.43,1.08l-1.56,6c-.71-.27-1.48-.5-2.32-.71-.84-.2-1.78-.3-2.83-.3-2.22,0-3.88.69-4.97,2.07-1.09,1.38-1.64,3.2-1.64,5.45,0,2.39.51,4.24,1.54,5.55,1.03,1.31,2.82,1.97,5.37,1.97.91,0,1.88-.08,2.93-.25,1.04-.17,2-.44,2.88-.81l1.06,6.16c-.88.37-1.97.69-3.28.96-1.31.27-2.76.4-4.34.4-2.42,0-4.51-.36-6.26-1.08-1.75-.72-3.19-1.71-4.31-2.95-1.13-1.24-1.95-2.72-2.47-4.42-.52-1.7-.78-3.54-.78-5.53Z"></path><path class="cls-1" d="m297.18,134.09v-37.95l7.52-1.21v12.72c.5-.17,1.15-.33,1.94-.48s1.56-.23,2.3-.23c2.15,0,3.94.29,5.37.88,1.43.59,2.57,1.42,3.43,2.5.86,1.08,1.46,2.35,1.82,3.83.35,1.48.53,3.13.53,4.94v14.99h-7.52v-14.08c0-2.42-.31-4.14-.93-5.15-.62-1.01-1.77-1.51-3.46-1.51-.67,0-1.3.06-1.89.18-.59.12-1.12.24-1.59.38v20.18h-7.52Z"></path></g><g><path d="m154.73,60.4c-3.3-.21-6.68-.41-10.06-.57-14.66-.73-29.09-1.06-42.91-.97-14.42-.11-28.86.17-42.94.85-3.43.15-6.83.34-10.06.54v56.28c10.24,53.49,53.62,50.07,53.62,50.07,49.4-3.22,52.33-53.96,52.33-53.96v-29.24c-.14-4.95-.03-18,.02-23Z"></path><path class="cls-1" d="m146.48,60.79s-13.28,10.14-41.84,12.87l1.34-5.87s-25.92,7.92-48.97-1.21v13.93s0,34.17,0,34.17c0,0,3.35,38.24,40.91,43.48,0,0,38.69,5.03,48.56-42.18v-39.43s0-6.65,0-6.65v-9.09Z"></path><g><circle cx="73.76" cy="100.24" r="6.23"></circle><circle cx="129.73" cy="100.24" r="6.23"></circle></g><g><g><path class="cls-5" d="m157.73,86.18c0-.33-.05-.65-.08-.98-.09-1.27-.35-1.55-1.65-1.65-1.67-.13-3.35-.19-5.02-.36-2.4-.24-4.79-.61-7.19-.84-.98-.09-1.97-.18-2.95-.26-1.73-.15-3.46-.29-5.19-.43-.86-.07-1.72-.14-2.57-.21-2.13-.18-4.19.05-6.3.29-1.39.16-2.8.27-4.19.47-1.92.27-3.86.62-5.74,1.02-2.34.5-4.66,1.04-6.99,1.59-2.7.64-5.43.83-8.18.84-2.71-.02-5.4-.21-8.06-.84-2.33-.55-4.66-1.09-6.99-1.59-1.88-.4-3.82-.75-5.74-1.02-1.39-.2-2.79-.31-4.19-.47-2.11-.25-4.18-.47-6.3-.29-.86.07-1.72.14-2.57.21-1.73.14-3.46.28-5.19.43-.98.08-1.97.17-2.95.26-2.4.22-4.79.59-7.18.84-1.67.17-3.35.23-5.02.36-1.3.1-1.56.38-1.65,1.65-.02.33-.07.65-.07.98-.04,1.39-.08,2.78-.09,4.17,0,.59.13,1.12.81,1.31,1.65.48,2.5,1.61,2.78,3.28.33,2,.72,3.99,1.06,5.99.54,3.13,1.29,6.2,2.52,9.14,1.05,2.52,2.47,4.82,4.93,6.17,1.63.89,3.37,1.66,5.14,2.2,3,.91,6.11,1.31,9.26,1.14,8.81-.5,16.79-4.64,20.92-12.64,1.66-3.23,2.95-6.62,4.13-10.05,1.49-4.33,7.5-4.45,9.04,0,1.18,3.43,2.46,6.83,4.13,10.05,4.13,8,12.11,12.14,20.92,12.64,3.16.18,6.26-.22,9.26-1.14,1.77-.54,3.51-1.31,5.14-2.2,2.46-1.35,3.88-3.65,4.93-6.17,1.23-2.94,1.98-6.01,2.52-9.14.35-2,.74-3.99,1.06-5.99.27-1.67,1.13-2.8,2.78-3.28.67-.2.81-.72.81-1.31-.02-1.39-.05-2.78-.09-4.17Zm-66.5,15.19c-.61,2.3-1.47,4.51-2.72,6.54-3.13,5.08-8.69,8-14.54,8.55-2.01.19-4.16.23-6.17,0-1.4-.16-2.79-.41-4.08-1.01-.53-.25-1.07-.44-1.6-.67-.45-.2-.88-.48-1.32-.7-2.61-1.33-4.14-3.52-4.86-6.28-1.27-4.82-1.71-9.73-1.1-14.69.12-.99.44-1.96.75-2.91.55-1.67,1.9-2.5,3.41-3.15,2.28-.98,4.68-1.48,7.13-1.79,3.72-.47,7.45-.59,11.19-.22,3.59.35,7.1,1.05,10.4,2.59.68.32,1.31.72,1.9,1.19.25.2.52.4.74.64.27.3.43.67.65,1.01.21.32.45.63.64.96.41.71.46,1.51.64,2.29.14,2.6-.39,5.13-1.05,7.65Zm56.31,6.43c-.73,2.76-2.25,4.95-4.86,6.28-.44.22-.87.5-1.32.7-.53.23-1.08.43-1.61.67-1.28.6-2.68.85-4.08,1.01-2.01.24-4.16.19-6.17,0-5.85-.56-11.41-3.47-14.54-8.55-1.25-2.03-2.11-4.24-2.72-6.54-.66-2.52-1.2-5.05-1.05-7.65.18-.77.23-1.58.64-2.29.2-.33.43-.64.64-.96.22-.33.38-.71.65-1.01.22-.24.48-.44.73-.64.58-.47,1.22-.87,1.9-1.19,3.3-1.54,6.8-2.24,10.39-2.59,3.73-.37,7.47-.25,11.19.22,2.45.31,4.85.81,7.13,1.79,1.5.65,2.86,1.48,3.41,3.15.31.95.63,1.92.75,2.91.61,4.96.17,9.87-1.1,14.69Z"></path><path d="m70.71,121.37c-2.79,0-5.58-.42-8.31-1.26-1.79-.54-3.63-1.33-5.47-2.34-3.22-1.76-4.8-4.86-5.71-7.03-1.14-2.73-1.97-5.76-2.63-9.52-.14-.79-.28-1.57-.42-2.36-.22-1.21-.44-2.43-.64-3.64-.2-1.25-.77-1.66-1.54-1.88-.63-.18-2.09-.84-2.07-3.01.01-1.31.05-2.62.08-3.93v-.27c.01-.24.03-.49.06-.73l.03-.33c.15-2.16,1.1-3.1,3.25-3.27.66-.05,1.32-.09,1.98-.13,1-.06,2.01-.12,3-.23,1.1-.11,2.2-.25,3.29-.39,1.3-.16,2.6-.33,3.9-.45.99-.09,1.98-.18,2.97-.26,1.73-.15,3.47-.29,5.2-.43l2.57-.21c2.2-.18,4.22.02,6.65.3.51.06,1.03.11,1.54.16.9.09,1.8.18,2.69.31,1.93.27,3.9.63,5.86,1.05,2.35.5,4.69,1.04,7.03,1.6,2.2.52,4.63.78,7.66.8,3.07-.02,5.54-.27,7.76-.8,2.34-.56,4.68-1.1,7.03-1.6,1.95-.42,3.92-.77,5.86-1.05.89-.13,1.79-.22,2.68-.31.52-.05,1.03-.11,1.55-.17,2.01-.23,4.28-.49,6.65-.3l2.57.21c1.84.15,3.52.29,5.2.43.98.08,1.97.17,2.96.26,1.3.12,2.6.29,3.91.45,1.1.14,2.19.28,3.29.39,1,.1,2,.17,3,.23.66.04,1.32.08,1.98.13,2.16.17,3.11,1.12,3.25,3.27l.03.33c.02.24.04.48.05.73v.53c.04,1.22.08,2.44.09,3.66.02,2.17-1.44,2.83-2.06,3.01-.78.23-1.34.63-1.54,1.88-.2,1.22-.42,2.43-.64,3.65-.14.79-.29,1.57-.42,2.36-.65,3.76-1.49,6.78-2.63,9.51-.91,2.17-2.49,5.27-5.71,7.03-1.84,1-3.68,1.79-5.48,2.34-3.24.99-6.55,1.41-9.87,1.21-10.06-.57-18.21-5.52-22.37-13.58-1.8-3.49-3.15-7.16-4.23-10.28-.46-1.33-1.52-2.12-2.84-2.12h0c-1.04,0-2.35.56-2.89,2.12-1.07,3.11-2.4,6.76-4.23,10.28-4.16,8.06-12.32,13.02-22.38,13.58-.52.03-1.04.04-1.56.04Zm2.08-34.79c-2.08,0-4.22.14-6.44.43-2.72.35-4.83.87-6.66,1.66-1.47.63-2.15,1.22-2.44,2.09-.3.91-.58,1.76-.68,2.58-.55,4.54-.2,9.26,1.06,14.03.64,2.45,1.94,4.14,3.96,5.16.2.1.4.21.6.33.21.12.41.24.63.33l.6.25c.35.14.7.28,1.04.44,1.12.53,2.42.73,3.54.86,1.69.2,3.7.19,5.8,0,5.71-.54,10.53-3.36,13.22-7.73,1.08-1.75,1.9-3.74,2.52-6.07.58-2.22,1.11-4.6,1-6.97-.04-.18-.07-.35-.1-.53-.09-.46-.16-.86-.31-1.12-.1-.17-.21-.32-.32-.48l-.27-.4c-.09-.14-.18-.28-.26-.43-.09-.15-.17-.3-.23-.37-.1-.11-.23-.21-.36-.31l-.17-.14c-.48-.39-1-.71-1.54-.97-2.71-1.27-5.83-2.04-9.82-2.43-1.43-.14-2.88-.21-4.35-.21Zm40.14,7.38c-.1,2.37.42,4.75,1.01,6.97.61,2.33,1.43,4.32,2.52,6.07,2.69,4.37,7.5,7.18,13.21,7.73,2.1.2,4.1.2,5.8,0,1.12-.13,2.41-.33,3.54-.86.35-.16.7-.31,1.06-.45l.6-.25c.21-.09.42-.21.63-.33.2-.11.4-.22.6-.32,2.02-1.02,3.32-2.71,3.96-5.16,1.26-4.77,1.61-9.49,1.06-14.03-.1-.8-.37-1.64-.66-2.53-.3-.91-.98-1.5-2.46-2.14-1.83-.79-3.94-1.31-6.66-1.66-3.75-.48-7.38-.55-10.8-.21-3.99.39-7.11,1.16-9.82,2.43-.53.25-1.05.58-1.55.97l-.16.13c-.12.1-.25.19-.36.31-.07.07-.16.23-.24.37-.08.14-.17.29-.25.42l-.27.4c-.11.16-.23.32-.33.5-.14.25-.22.64-.3,1.1-.03.18-.07.36-.11.54Z"></path></g><path class="cls-3" d="m152.25,88.94c-1.14,0-2.06-.31-2.06-.68s.92-.68,2.06-.68,2.06.31,2.06.68-.92.68-2.06.68Z"></path><path class="cls-3" d="m51.21,88.94c-1.14,0-2.06-.31-2.06-.68s.92-.68,2.06-.68,2.06.31,2.06.68-.92.68-2.06.68Z"></path></g><path class="cls-4" d="m121.02,135.1l-5.06-3.99c-.05.07-5.23,6.5-14.22,6.5s-14.02-6.25-14.23-6.52h.01s-5.06,4-5.06,4c.29.37,7.2,8.96,19.28,8.96s18.99-8.59,19.28-8.96h0Z"></path><g><path d="m82.46,135.1c.29.37,7.2,8.96,19.28,8.96,12.08,0,18.99-8.59,19.28-8.96l-5.06-3.99h.01c-.21.25-5.35,6.5-14.23,6.5-8.99,0-14.17-6.44-14.22-6.5l-5.06,3.99h0Z"></path><path d="m101.74,144.93c-12.53,0-19.67-8.91-19.97-9.29l-.54-.69,6.43-5.06.54.68c.05.06,5.04,6.17,13.53,6.17,7.53,0,12.23-4.71,13.32-5.92l.24-.28.68.55.53-.67,5.74,4.53-.54.69c-.3.38-7.44,9.29-19.97,9.29Zm-18.02-9.71c1.86,2.03,8.13,7.96,18.02,7.96s16.16-5.93,18.02-7.96l-3.7-2.91c-1.65,1.72-6.66,6.18-14.32,6.18s-12.68-4.48-14.32-6.18l-3.7,2.91Z"></path></g><path class="cls-2" d="m42.25,57.17c4.91-.33,10.56-.69,16.3-.95,14.14-.68,28.65-.97,43.1-.85,13.85-.09,28.36.24,43.08.97,5.64.27,11.32.64,16.51,1.01-.07-.11-.17-.2-.3-.26-1.94-.99-3.95-1.91-6-2.78.07-15.23-1.66-43.32-15.21-45.73-18.67-3.31-31.01-4.22-31.01-4.22,0,0,.9-4.37-7.08-4.37s-7.08,4.37-7.08,4.37c0,0-12.34.9-31.01,4.22-13.55,2.4-15.28,30.5-15.21,45.73-2.06.87-4.06,1.79-6,2.78-.04.02-.06.06-.09.08Z"></path></g></g></g></svg>